<svg xmlns="http://www.w3.org/2000/svg" viewBox="0 0 330.003 330.003"><path d="M150.002 105c0-24.813-20.187-45-45-45s-45 20.187-45 45 20.187 45 45 45 45-20.187 45-45zm-60 0c0-8.271 6.729-15 15-15s15 6.729 15 15-6.729 15-15 15-15-6.729-15-15z"/><path d="M315.002 30h-58.516L107.944.292A14.99 14.99 0 00105.002 0c-57.897 0-105 47.103-105 105 0 53.88 40.796 98.403 93.119 104.324l27.329 109.315a15 15 0 0014.552 11.362h59.908l.081.003c.47 0 .943-.029 1.418-.075a14.979 14.979 0 001.474-.212c.126-.024.25-.054.374-.081.128-.029.255-.052.383-.084.11-.027.213-.068.322-.098a14.083 14.083 0 001.456-.478 15.077 15.077 0 002.039-.973 14.475 14.475 0 001.196-.764 14.06 14.06 0 001.134-.887 14.693 14.693 0 002.025-2.128 14.657 14.657 0 00.852-1.209 13.36 13.36 0 00.721-1.272c.093-.184.182-.368.268-.556a15.329 15.329 0 00.953-2.817 14.763 14.763 0 00.377-3.043c.002-.11.017-.218.017-.329 0-.085-.011-.168-.013-.252a15.29 15.29 0 00-.044-.88 15.96 15.96 0 00-.066-.697 15.676 15.676 0 00-.107-.702 15.017 15.017 0 00-.168-.855c-.02-.084-.029-.168-.05-.253l-12.675-50.701c4.976-3.453 7.567-9.729 6.011-15.953l-12.854-51.418L256.486 180h58.516c8.284 0 15-6.716 15-15V45c0-8.284-6.716-15-15-15zm-285 75c0-40.88 32.878-74.227 73.581-74.987l136.419 27.284v95.406l-136.419 27.284C62.88 179.227 30.002 145.88 30.002 105zm93.367 101.623l27.692-5.538L175.79 300h-29.076l-23.345-93.377zM300.002 150h-30V60h30v90z"/></svg>